<svg fill="none" height="27" viewBox="0 0 138 27" width="138" xmlns="http://www.w3.org/2000/svg">

  <!-- Texto "Morita." -->

  <text x="45" y="20" font-family="Inter" font-size="20" font-weight="bold" fill="white">Morita.</text>

  

  <!-- Cerdito -->

  <g transform="translate(5, 2)">

    <!-- Cuerpo principal -->

    <path d="M18 12.5c0 5-4 9-9 9s-9-4-9-9 4-9 9-9 9 4 9 9z" 

          fill="#7E22CE"/>

    

    <!-- Oreja -->

    <path d="M185.167 55.287C183.025 55.970 182.133 57.915 183.612 58.680C185.751 59.786 189.259 58.453 189.259 56.534C189.259 55.252 187.224 54.632 185.167 55.287" 

          fill="#6B21A8"/>

    

    <!-- Hocico -->

    <path d="M174.336 61.490C172.594 61.840 171.396 62.944 171.396 64.200C171.396 65.416 174.377 65.823 176.299 64.870C179.204 63.430 177.687 60.816 174.336 61.490" 

          fill="#6B21A8"/>

    

    <!-- Monedas -->

    <circle cx="189" cy="57" r="2" fill="#9333EA"/>

    <circle cx="192" cy="55" r="1.5" fill="#9333EA"/>

    <circle cx="187" cy="54" r="1.5" fill="#9333EA"/>

  </g>

</svg>