<?xml version="1.0" encoding="UTF-8" standalone="no" ?>
<!DOCTYPE svg PUBLIC "-//W3C//DTD SVG 1.1//EN" "http://www.w3.org/Graphics/SVG/1.1/DTD/svg11.dtd">
<svg xmlns="http://www.w3.org/2000/svg" xmlns:xlink="http://www.w3.org/1999/xlink" version="1.1" width="1080" height="1080" viewBox="-10.59 0.59 1080 1080" xml:space="preserve">
<desc>Created with Fabric.js 5.2.4</desc>
<defs>
</defs>
<g transform="matrix(1 0 0 1 540 540)" id="8c4503f8-ebcc-4053-baac-28d904412330"  >
</g>
<g transform="matrix(1 0 0 1 540 540)" id="3600f70a-231c-47e8-a63b-cb5217236e24"  >
<rect style="stroke: none; stroke-width: 1; stroke-dasharray: none; stroke-linecap: butt; stroke-dashoffset: 0; stroke-linejoin: miter; stroke-miterlimit: 4; fill: rgb(255,255,255); fill-rule: nonzero; opacity: 1; visibility: hidden;" vector-effect="non-scaling-stroke"  x="-540" y="-540" rx="0" ry="0" width="1080" height="1080" />
</g>
<g transform="matrix(1 0 0 1 540 305.33)"  >
<g style="opacity: 1;" vector-effect="non-scaling-stroke"   >
		<g transform="matrix(1 0 0 1 -490 -490)"  >
<rect style="stroke: none; stroke-width: 1; stroke-dasharray: none; stroke-linecap: butt; stroke-dashoffset: 0; stroke-linejoin: miter; stroke-miterlimit: 4; fill: rgb(255,255,255); fill-opacity: 0; fill-rule: nonzero; opacity: 1;" vector-effect="non-scaling-stroke"  x="-50" y="-50" rx="0" ry="0" width="100" height="100" />
</g>
		<g transform="matrix(1 0 0 1 0 0)"  >
<rect style="stroke: none; stroke-width: 1; stroke-dasharray: none; stroke-linecap: butt; stroke-dashoffset: 0; stroke-linejoin: miter; stroke-miterlimit: 4; fill: rgb(255,255,255); fill-rule: nonzero; opacity: 1; visibility: hidden;" vector-effect="non-scaling-stroke"  x="-540" y="-540" rx="0" ry="0" width="1080" height="1080" />
</g>
		<g transform="matrix(0.14 0 0 -0.14 -3.67 199.73)"  >
<path style="stroke: rgb(241,241,241); stroke-width: 0; stroke-dasharray: none; stroke-linecap: butt; stroke-dashoffset: 0; stroke-linejoin: miter; stroke-miterlimit: 4; fill: rgb(199,28,210); fill-rule: nonzero; opacity: 0.94;" vector-effect="non-scaling-stroke"  transform=" translate(-1591.59, -1019.18)" d="M 1030 1836 C 904 1801 654 1694 630 1665 C 621 1655 624 1642 640 1609 C 665 1561 674 1580 565 1451 C 527 1406 492 1351 469 1298 C 433 1216 432 1215 390 1208 C 335 1198 302 1177 293 1142 C 288 1127 285 1061 285 995 C 285 883 287 872 314 820 C 329 790 354 752 369 736 C 409 692 486 660 551 660 C 601 660 609 657 641 624 C 687 576 782 508 853 474 C 921 440 924 429 880 330 C 845 251 844 240 868 211 C 885 190 890 190 1129 192 L 1374 195 L 1407 238 C 1424 261 1449 307 1460 339 L 1482 398 L 1698 403 C 1910 408 2019 423 2113 459 C 2139 469 2140 468 2140 439 C 2140 421 2124 373 2105 330 C 2064 239 2064 236 2090 210 C 2109 191 2123 190 2353 190 C 2626 191 2614 188 2663 272 C 2694 323 2720 430 2720 505 C 2720 533 2713 594 2704 643 L 2688 730 L 2723 803 C 2773 905 2790 980 2790 1104 C 2790 1190 2793 1210 2805 1210 C 2813 1210 2835 1224 2854 1241 C 2917 1295 2912 1384 2843 1461 C 2803 1505 2774 1514 2784 1478 C 2800 1427 2802 1370 2790 1355 C 2766 1326 2745 1340 2705 1413 C 2645 1521 2519 1642 2405 1702 C 2291 1761 2184 1796 2045 1820 C 1755 1868 1445 1848 1199 1765 C 1159 1751 1126 1740 1124 1740 C 1123 1740 1119 1765 1115 1795 C 1108 1856 1106 1857 1030 1836 z M 1908 1689 C 2148 1663 2363 1578 2475 1465 C 2580 1358 2632 1231 2633 1081 C 2633 984 2615 924 2554 824 L 2518 765 L 2536 680 C 2560 574 2561 418 2540 375 L 2525 345 L 2414 342 L 2304 339 L 2303 408 C 2302 457 2293 502 2271 565 C 2254 613 2239 654 2237 656 C 2235 658 2198 646 2155 629 C 1955 551 1690 522 1460 553 C 1397 562 1342 566 1338 564 C 1334 561 1330 544 1330 527 C 1330 489 1315 429 1293 378 L 1277 340 L 1211 339 C 1175 338 1127 337 1105 336 C 1074 335 1066 339 1068 350 C 1077 388 1082 500 1077 522 C 1072 541 1058 550 1013 564 C 915 594 839 642 752 725 L 669 804 L 602 802 C 518 798 489 811 460 863 C 441 895 436 921 436 974 L 435 1043 L 474 1056 C 495 1064 519 1075 528 1082 C 536 1089 567 1146 597 1210 C 645 1310 662 1335 727 1399 L 802 1473 L 797 1521 C 791 1567 793 1571 823 1594 C 850 1614 933 1660 942 1660 C 944 1660 943 1615 942 1560 C 939 1492 942 1460 949 1460 C 955 1460 1001 1487 1050 1521 C 1155 1591 1194 1610 1315 1645 C 1486 1695 1705 1712 1908 1689 z" stroke-linecap="round" />
</g>
		<g transform="matrix(0.14 0 0 -0.14 19.29 142.24)"  >
<path style="stroke: rgb(0,0,0); stroke-opacity: 0; stroke-width: 1; stroke-dasharray: none; stroke-linecap: butt; stroke-dashoffset: 0; stroke-linejoin: miter; stroke-miterlimit: 4; fill: rgb(199,28,210); fill-opacity: 0.94; fill-rule: nonzero; opacity: 1;" vector-effect="non-scaling-stroke"  transform=" translate(-1829.94, -1449.23)" d="M 1499 1561 C 1394 1541 1340 1528 1336 1521 C 1333 1517 1337 1494 1344 1469 C 1359 1420 1359 1420 1448 1439 C 1666 1484 2022 1447 2207 1361 L 2270 1331 L 2301 1376 C 2318 1401 2328 1425 2324 1430 C 2302 1449 2100 1523 2017 1541 C 1915 1563 1583 1576 1499 1561 z" stroke-linecap="round" />
</g>
		<g transform="matrix(0.14 0 0 -0.14 -102.05 168.28)"  >
<path style="stroke: none; stroke-width: 1; stroke-dasharray: none; stroke-linecap: butt; stroke-dashoffset: 0; stroke-linejoin: miter; stroke-miterlimit: 4; fill: rgb(199,29,209); fill-opacity: 0.94; fill-rule: nonzero; opacity: 1;" vector-effect="non-scaling-stroke"  transform=" translate(-917.81, -1238.09)" d="M 857 1320 C 794 1270 805 1174 876 1144 C 948 1114 1020 1162 1020 1242 C 1020 1324 922 1371 857 1320 z" stroke-linecap="round" />
</g>
</g>
</g>
</svg>