<?xml version="1.0" encoding="UTF-8" standalone="no" ?>
<!DOCTYPE svg PUBLIC "-//W3C//DTD SVG 1.1//EN" "http://www.w3.org/Graphics/SVG/1.1/DTD/svg11.dtd">
<svg xmlns="http://www.w3.org/2000/svg" xmlns:xlink="http://www.w3.org/1999/xlink" version="1.1" width="1080" height="1080" viewBox="0 0 1080 1080" xml:space="preserve">
<desc>Created with Fabric.js 5.2.4</desc>
<defs>
</defs>
<g transform="matrix(1 0 0 1 540 540)" id="44f7a8c6-d83c-4b1e-bc16-7f03e7b079e2"  >
<rect style="stroke: none; stroke-width: 1; stroke-dasharray: none; stroke-linecap: butt; stroke-dashoffset: 0; stroke-linejoin: miter; stroke-miterlimit: 4; fill: rgb(255,255,255); fill-rule: nonzero; opacity: 1; visibility: hidden;" vector-effect="non-scaling-stroke"  x="-540" y="-540" rx="0" ry="0" width="1080" height="1080" />
</g>
<g transform="matrix(1 0 0 1 540 540)" id="cca55f40-602d-4bd0-816d-ccb989f0f40d"  >
</g>
<g transform="matrix(1 0 0 1 540 540)" id="4f534190-f467-44cb-bd9f-2f2db3ba227f"  >
<path style="stroke: rgb(101,113,28); stroke-width: 0; stroke-dasharray: none; stroke-linecap: butt; stroke-dashoffset: 0; stroke-linejoin: miter; stroke-miterlimit: 4; fill: rgb(255,255,255); fill-rule: nonzero; opacity: 1;" vector-effect="non-scaling-stroke"  transform=" translate(-376.01, -372.79)" d="M 493 547.29 C 487.23 547.57 478.82 547.45 474.33 547.04 C 468.32 546.48 465 545.6 461.76 543.71 C 459.34 542.29 456.18 539.41 454.74 537.31 C 453.3 535.22 451.83 532.15 451.47 530.5 C 451.11 528.85 450.6 526.71 450.34 525.75 C 450.08 524.79 449.11 524.01 448.18 524.02 C 447.26 524.03 442.33 525.35 437.22 526.96 C 432.12 528.57 423.57 530.8 418.22 531.9 C 412.88 533.01 401.88 534.61 393.78 535.46 C 385.68 536.31 374.43 536.99 368.78 536.98 C 363.13 536.97 354.23 536.52 349 535.98 C 343.77 535.44 334.94 534.1 329.38 533 C 323.81 531.91 315.26 529.82 310.38 528.38 C 305.49 526.93 300.59 525.54 299.48 525.3 C 297.84 524.94 297.05 525.81 295.34 529.88 C 293.93 533.2 292.09 535.58 289.9 536.92 C 288.07 538.03 283.53 539.63 279.8 540.48 C 276.07 541.33 268.57 542.48 263.13 543.03 C 256.58 543.71 250.34 543.72 244.62 543.07 C 239.87 542.53 233.89 541.16 231.32 540.03 C 228.76 538.89 224.65 536.32 222.2 534.3 C 219.72 532.28 216.79 528.61 215.62 526.07 C 213.62 521.77 213.52 520.16 213.8 498.78 C 214.02 482.46 213.77 475.42 212.9 473.78 C 212.24 472.53 208.19 466.19 203.9 459.69 C 198.79 451.95 194.67 444.21 191.92 437.19 C 189.62 431.31 186.45 421.4 184.88 415.17 C 183.3 408.94 181.52 398.59 180.91 392.17 C 180.31 385.75 180.11 376.45 180.47 371.5 C 180.83 366.55 181.59 359.35 182.15 355.5 C 182.71 351.65 184.25 344.61 185.57 339.85 C 186.89 335.1 189.98 326.78 192.44 321.36 C 196.9 311.52 196.9 311.52 194.6 307.51 C 193.33 305.3 190.68 300.87 188.71 297.66 C 186.74 294.45 184.15 289.05 182.97 285.66 C 181.62 281.81 180.61 275.93 180.28 270 C 179.97 264.37 180.24 258.16 180.94 254.78 C 181.6 251.63 183.5 246.32 185.17 242.97 C 186.85 239.62 190.72 234.17 193.79 230.86 C 196.85 227.55 202.18 222.83 205.63 220.37 C 209.08 217.91 215.63 214.51 220.2 212.81 C 226.98 210.29 230.48 209.64 239.37 209.23 C 246.26 208.91 252.29 209.19 255.87 209.99 C 258.96 210.68 263.83 212.28 266.67 213.54 C 269.52 214.79 274.63 217.71 278.03 220.02 C 283.68 223.86 284.45 224.11 286.86 222.99 C 288.31 222.31 292.65 220.66 296.5 219.32 C 300.35 217.97 308.63 215.55 314.9 213.94 C 321.17 212.32 327.47 210.99 328.9 210.98 C 330.33 210.97 333.98 209.55 337 207.82 C 340.02 206.1 344.41 203.67 346.74 202.43 C 349.07 201.2 354.18 199.64 358.1 198.98 C 362.02 198.32 368.17 197.97 371.77 198.2 C 378.09 198.6 378.45 198.77 382.41 203.23 C 386.43 207.76 386.63 207.85 394 208.47 C 398.12 208.82 406.45 209.76 412.5 210.57 C 418.55 211.37 427.48 213.13 432.34 214.47 C 441.19 216.92 441.19 216.92 451.34 212.04 C 457.01 209.31 465 206.4 469.41 205.44 C 475.21 204.18 479.88 203.87 486.91 204.27 C 493.5 204.65 498.61 205.59 503.24 207.28 C 506.95 208.64 512.51 211.27 515.59 213.12 C 518.67 214.98 523.96 219.44 527.35 223.03 C 530.73 226.62 534.76 231.9 536.3 234.75 C 537.84 237.61 539.78 243.22 540.62 247.22 C 541.65 252.14 541.93 256.77 541.5 261.5 C 541.14 265.35 539.97 272.3 538.9 276.94 C 536.95 285.37 536.95 285.37 543.82 295.44 C 547.6 300.97 552.03 307.98 553.67 311 C 555.31 314.02 558.53 321.3 560.82 327.16 C 563.11 333.02 566.08 342.32 567.41 347.83 C 568.74 353.34 570.38 362.2 571.05 367.52 C 571.8 373.43 572.05 382.52 571.71 390.85 C 571.4 398.36 570.41 408.55 569.51 413.5 C 568.61 418.45 566.32 427.18 564.42 432.89 C 562.52 438.61 558.69 447.83 555.91 453.39 C 553.13 458.95 547.9 467.92 544.28 473.31 C 537.7 483.12 537.7 483.12 538.75 502.05 C 539.32 512.46 539.44 522.57 539 524.51 C 538.56 526.46 537.02 529.6 535.57 531.5 C 534.12 533.39 530.92 536.33 528.46 538.03 C 525.99 539.72 522.41 541.77 520.49 542.57 C 518.57 543.37 513.96 544.65 510.25 545.41 C 506.54 546.17 498.77 547.02 493 547.29 z M 485 530.36 C 489.68 530.14 496.8 529.7 500.84 529.38 C 506.19 528.97 508.71 528.29 510.09 526.91 C 511.88 525.12 512 523.24 511.97 497.75 C 511.94 470.5 511.94 470.5 509.72 473.11 C 508.5 474.55 505.42 478.24 502.87 481.33 C 500.32 484.41 495.31 489.43 491.74 492.48 C 488.16 495.54 481.47 500.21 476.87 502.87 C 468.5 507.7 468.5 507.7 468.83 516.5 C 469.01 521.34 469.55 526.32 470.03 527.58 C 470.57 528.99 471.96 530.03 473.7 530.31 C 475.24 530.56 480.32 530.59 485 530.36 z M 247.55 524.93 C 252.56 524.97 256.05 524.55 256.8 523.8 C 257.61 522.99 258 518.43 258 509.82 C 258 497.04 258 497.04 250.53 489.9 C 246.42 485.96 242.78 481.87 242.44 480.8 C 242.1 479.73 242.06 478.6 242.36 478.3 C 242.66 478 247.99 481.12 254.2 485.23 C 260.42 489.35 268.43 494.31 272 496.28 C 275.57 498.24 282.44 501.46 287.25 503.44 C 292.06 505.42 301.28 508.56 307.75 510.42 C 314.21 512.27 323.78 514.51 329.01 515.4 C 334.24 516.29 344.59 517.48 352.01 518.06 C 359.43 518.63 368.09 518.81 371.25 518.45 C 374.41 518.1 376.8 517.49 376.57 517.11 C 376.34 516.73 370.04 513.32 362.57 509.52 C 355.11 505.72 349 502.32 349 501.96 C 349 501.59 354.96 501.03 362.25 500.71 C 369.54 500.38 379.55 499.39 384.5 498.51 C 389.45 497.63 398.17 495.35 403.87 493.44 C 409.58 491.53 417.68 488.18 421.87 485.99 C 426.07 483.79 432.48 479.76 436.12 477.02 C 439.75 474.28 445.43 469.16 448.73 465.63 C 452.03 462.1 457.32 455.33 460.48 450.57 C 463.65 445.81 467.92 438.45 469.98 434.21 C 472.04 429.97 475.21 422.45 477.03 417.5 C 478.84 412.55 480.65 408.12 481.05 407.66 C 481.46 407.19 482.38 408.54 483.1 410.66 C 483.88 412.91 484.4 418.65 484.36 424.5 C 484.31 431.42 483.61 437.12 482.08 442.99 C 480.86 447.66 478.54 454.48 476.93 458.16 C 475.32 461.83 474 465.18 474 465.59 C 474 466.01 475.16 465.26 476.59 463.92 C 478.01 462.59 481.38 458.53 484.07 454.9 C 486.76 451.27 490.75 444.73 492.94 440.36 C 495.13 435.99 498.48 427.71 500.4 421.96 C 502.31 416.21 504.6 407.45 505.48 402.5 C 506.36 397.55 507.51 385 508.02 374.6 C 508.54 364.21 509.19 355.48 509.46 355.21 C 509.73 354.94 510.89 356.92 512.05 359.61 C 513.21 362.3 515.58 369.45 517.33 375.5 C 520.42 386.21 520.5 387.02 520.48 406.18 C 520.47 417.01 520.8 425.33 521.22 424.68 C 521.63 424.03 523.09 420.12 524.46 416 C 525.83 411.88 527.7 404.23 528.62 399 C 529.53 393.77 530.29 384.77 530.3 379 C 530.31 373.23 529.76 365.12 529.08 361 C 528.4 356.88 526.95 350.21 525.86 346.2 C 524.76 342.18 522.49 335.66 520.81 331.7 C 519.13 327.74 515.73 320.99 513.26 316.7 C 509.58 310.3 508.88 308.33 509.4 305.7 C 509.75 303.94 512.27 296.34 515.01 288.81 C 517.74 281.28 520.71 270.93 521.6 265.81 C 522.56 260.23 522.98 254.24 522.63 250.86 C 522.31 247.76 521.15 242.81 520.05 239.86 C 518.94 236.91 515.98 232.15 513.47 229.28 C 510.24 225.59 506.67 222.96 501.31 220.31 C 494.42 216.9 492.82 216.52 483.92 216.17 C 477.16 215.89 471.81 216.29 466.66 217.43 C 462.56 218.34 455.67 220.82 451.35 222.93 C 447.03 225.04 441.61 228.15 439.3 229.85 C 436.99 231.55 431.97 235.89 428.14 239.51 C 423.8 243.6 420.91 245.66 420.48 244.97 C 420.1 244.36 420.96 241.6 422.4 238.83 C 423.83 236.07 425 233.48 425 233.07 C 425 232.65 420.61 231.34 415.25 230.15 C 409.89 228.96 402.35 227.54 398.5 227.01 C 394.65 226.48 386.89 226.03 381.25 226.02 C 371.06 226 370.99 226.02 367.25 229.32 C 365.19 231.14 359.97 235.31 355.66 238.57 C 351.35 241.83 346.1 245.79 344 247.36 C 341.9 248.94 339.64 250.05 338.98 249.83 C 338.25 249.58 339.95 246.33 343.37 241.46 C 346.43 237.08 350.36 231.4 352.08 228.84 C 354.56 225.16 355.99 224.04 358.86 223.51 C 360.86 223.13 363.22 222.19 364.1 221.4 C 364.98 220.61 366.76 216.84 368.06 213.03 C 369.36 209.21 370.14 205.81 369.8 205.46 C 369.45 205.12 366.44 205.54 363.1 206.4 C 359.76 207.25 354.89 209.04 352.27 210.38 C 349.64 211.71 346.57 213.86 345.43 215.15 C 344.29 216.44 341.93 219.78 340.19 222.56 C 337.03 227.63 337.03 227.63 327.77 229.38 C 322.67 230.35 312.2 233.29 304.5 235.93 C 296.8 238.56 288.38 241.56 285.79 242.59 C 281.07 244.46 281.07 244.46 275.16 238.58 C 271.91 235.35 266.73 231 263.64 228.93 C 260.55 226.85 255.61 224.25 252.65 223.14 C 249.69 222.04 244.62 220.84 241.39 220.48 C 237.55 220.06 232.97 220.37 228.24 221.37 C 224.24 222.21 218.17 224.38 214.75 226.2 C 211.33 228.01 205.71 232.26 202.26 235.63 C 198.33 239.48 195.04 243.86 193.42 247.39 C 192 250.49 190.44 255.83 189.95 259.26 C 189.4 263.16 189.44 267.89 190.07 271.89 C 190.63 275.4 192.46 281.85 194.14 286.21 C 195.82 290.57 199.22 297.15 201.69 300.82 C 204.16 304.49 206.63 308.33 207.17 309.34 C 207.94 310.76 207.03 313.7 203.14 322.34 C 200.38 328.48 197.17 337.1 196.01 341.5 C 194.85 345.9 193.26 354.23 192.47 360 C 191.68 365.77 191.03 374.04 191.02 378.37 C 191.01 382.7 191.71 390.99 192.57 396.8 C 193.43 402.6 195.85 412.57 197.95 418.96 C 200.04 425.35 203.45 433.93 205.51 438.04 C 207.57 442.14 211.92 449.32 215.17 454 C 218.42 458.68 222.07 463.77 223.29 465.32 C 225.42 468.04 225.51 469.1 225.82 493.48 C 226.13 516.99 226.29 518.95 228.07 520.57 C 229.13 521.53 232.14 522.88 234.75 523.59 C 237.36 524.29 243.12 524.9 247.55 524.93 z M 338 472.87 C 335.52 472.8 330.35 472.35 326.5 471.86 C 322.65 471.37 316.22 470.07 312.2 468.97 C 308.19 467.88 302.11 465.58 298.7 463.87 C 295.29 462.16 289.51 458.79 285.86 456.38 C 282.21 453.97 276.51 449.09 273.19 445.54 C 269.65 441.76 265.67 436.08 263.56 431.8 C 260.61 425.8 259.81 422.8 259.08 414.95 C 258.59 409.69 258.54 402.18 258.97 398.24 C 259.5 393.42 260.61 389.64 262.37 386.63 C 263.81 384.18 267.57 379.86 270.74 377.02 C 273.91 374.19 279.7 369.86 283.62 367.41 C 287.54 364.96 294.41 361.62 298.9 359.98 C 303.39 358.34 310.93 356.33 315.66 355.5 C 320.39 354.68 329.04 354 334.88 354 C 340.72 354.01 349.59 354.67 354.59 355.48 C 359.59 356.29 366.93 358.06 370.9 359.4 C 374.87 360.74 381.55 363.79 385.75 366.17 C 390.1 368.64 396.42 373.51 400.46 377.5 C 405.12 382.1 408.83 386.97 411.3 391.71 C 413.99 396.87 415.39 401.19 416.23 406.95 C 417.12 413.04 417.13 416.62 416.26 421.69 C 415.63 425.37 413.44 431.79 411.4 435.94 C 408.69 441.45 405.62 445.57 400.09 451.09 C 394.24 456.94 390.55 459.65 384 462.85 C 379.32 465.14 372.12 467.86 368 468.9 C 363.88 469.94 356.45 471.28 351.5 471.89 C 346.55 472.5 340.48 472.94 338 472.87 z M 333.5 458.58 C 343.54 458.33 349.67 457.64 355.2 456.17 C 359.43 455.04 365.45 452.9 368.57 451.42 C 371.8 449.9 376.94 446.09 380.47 442.62 C 385.01 438.15 387.33 434.88 389.05 430.5 C 391.07 425.38 391.42 422.74 391.43 412.5 C 391.43 401.51 391.19 399.92 388.53 393.56 C 386.35 388.33 384.01 384.98 379.07 380.01 C 374.89 375.81 369.88 372.05 365.3 369.68 C 361.34 367.62 354.63 365.06 350.39 363.97 C 344.84 362.55 339.35 362 330.8 362 C 323.87 362 315.73 362.66 311.27 363.58 C 307.07 364.45 300.78 366.23 297.3 367.54 C 293.82 368.85 287.83 371.95 283.99 374.44 C 280.14 376.93 274.98 380.82 272.51 383.1 C 270.03 385.38 267 388.88 265.76 390.87 C 263.82 393.99 263.53 395.72 263.68 403.21 C 263.78 407.99 264.56 414.63 265.41 417.95 C 266.26 421.28 267.93 425.9 269.12 428.23 C 270.3 430.56 273.98 435.28 277.29 438.72 C 280.6 442.17 285.39 446.32 287.93 447.95 C 290.47 449.59 295.69 452.11 299.53 453.56 C 303.36 455.01 309.43 456.81 313 457.56 C 317.32 458.47 324.19 458.81 333.5 458.58 z M 301 424 C 297.88 424 296.7 423.47 295.4 421.49 C 294.19 419.64 293.76 416.65 293.76 410 C 293.76 403.29 294.18 400.37 295.43 398.46 C 296.35 397.06 298.32 395.44 299.8 394.86 C 301.82 394.08 303.12 394.16 304.96 395.18 C 306.5 396.02 307.71 397.85 308.18 400.02 C 308.59 401.93 308.67 407.1 308.35 411.5 C 308.03 415.9 307.13 420.51 306.36 421.75 C 305.29 423.47 304.02 424 301 424 z M 335.05 424 C 333.04 424 330.86 423.46 330.2 422.8 C 329.41 422.01 329 417.85 329 410.73 C 329 404.48 329.49 398.94 330.15 397.68 C 330.78 396.48 331.79 395.17 332.4 394.77 C 333 394.36 334.67 394.02 336.1 394.02 C 337.52 394.01 339.55 394.95 340.6 396.1 C 342.22 397.9 342.5 399.79 342.5 409 C 342.5 418.21 342.22 420.1 340.6 421.9 C 339.32 423.3 337.48 424 335.05 424 z M 365.41 424 C 363.13 424 361.74 423.39 361.04 422.07 C 360.47 421 360 415.24 360 409.26 C 360 401.59 360.41 397.83 361.38 396.5 C 362.69 394.7 362.88 394.69 365.36 396.32 C 366.8 397.26 368.77 399.24 369.73 400.72 C 371.07 402.76 371.5 405.48 371.5 412.05 C 371.5 417.9 371.06 421.22 370.13 422.34 C 369.35 423.28 367.3 424 365.41 424 z M 263.93 357.98 C 262.05 357.96 259.11 357.27 257.41 356.43 C 255.72 355.59 253.58 353.34 252.66 351.42 C 251.75 349.5 251 345.77 251 343.12 C 251 340.04 251.82 336.76 253.29 333.99 C 254.55 331.61 257.23 328.32 259.24 326.69 C 261.91 324.54 263.97 323.73 266.82 323.73 C 268.97 323.73 272.1 324.54 273.77 325.52 C 275.44 326.51 277.75 329 278.91 331.05 C 280.3 333.52 281 336.55 281 340.05 C 281 343.86 280.31 346.5 278.51 349.57 C 276.86 352.39 274.59 354.51 271.7 355.9 C 269.32 357.06 265.82 357.99 263.93 357.98 z M 407.02 357 C 404.45 357 400.68 356.1 398.27 354.91 C 395.95 353.76 393.13 351.33 392 349.5 C 390.57 347.19 389.9 344.24 389.76 339.72 C 389.6 334.2 389.96 332.65 392.22 329.24 C 393.8 326.85 396.63 324.39 399.25 323.12 C 401.66 321.95 404.55 321 405.67 321 C 406.79 321 409.23 321.51 411.1 322.14 C 412.97 322.76 415.78 324.45 417.34 325.89 C 418.9 327.32 420.86 329.81 421.7 331.41 C 422.72 333.37 423.08 336.16 422.81 339.96 C 422.58 343.07 421.5 347.34 420.4 349.46 C 419.29 351.61 416.88 354.13 414.97 355.16 C 413.08 356.17 409.5 357 407.02 357 z M 261.62 346 C 262.45 346 264 345.53 265.06 344.97 C 266.12 344.4 267.94 342.08 269.09 339.82 C 270.77 336.54 270.97 335.24 270.12 333.35 C 269.3 331.56 268.24 331 265.66 331 C 263.74 331 261.12 331.9 259.63 333.07 C 257.77 334.54 257 336.08 257 338.35 C 257 340.11 257.7 342.56 258.56 343.78 C 259.41 345 260.79 346 261.62 346 z M 398.77 345 C 399.58 345 401.98 343.25 404.12 341.12 C 406.53 338.71 408 336.3 408 334.77 C 408 333.42 407.11 331.51 406.03 330.52 C 404.31 328.97 403.65 328.9 400.99 330 C 399.31 330.7 397.05 332.4 395.97 333.77 C 394.88 335.14 394 337.41 394 338.81 C 394 340.2 394.74 342.17 395.65 343.17 C 396.57 344.18 397.97 345 398.77 345 z M 212.34 303.73 C 211.68 303.94 209.83 300.6 207.99 295.83 C 206.24 291.27 204.18 284.61 203.42 281.02 C 202.66 277.44 202.02 272.48 202.01 270 C 202 267.52 202.78 263.25 203.75 260.5 C 204.79 257.52 207.24 253.75 209.79 251.19 C 212.14 248.81 216.39 245.8 219.23 244.48 C 222.07 243.17 226.71 241.81 229.54 241.45 C 232.98 241.02 236.83 241.35 241.1 242.44 C 244.62 243.34 249.9 245.52 252.84 247.29 C 255.77 249.05 260.19 252.65 262.65 255.28 C 265.12 257.91 266.99 260.75 266.82 261.58 C 266.58 262.72 264.8 263.21 259.94 263.49 C 256.34 263.69 251.39 264.63 248.94 265.58 C 246.5 266.53 242.08 269.13 239.12 271.37 C 236.17 273.61 231.52 277.93 228.81 280.97 C 226.09 284.01 221.53 290.29 218.68 294.92 C 215.83 299.56 212.98 303.52 212.34 303.73 z M 439.8 294.78 C 438.86 294.97 437.28 294.14 436.3 292.93 C 435.31 291.73 432.81 288.74 430.75 286.31 C 428.69 283.87 427 281.44 427 280.9 C 427 280.29 427.73 280.32 428.95 280.97 C 430.02 281.55 431.54 282.93 432.32 284.04 C 433.66 285.96 433.77 285.85 434.38 282.03 C 434.78 279.54 435.56 278 436.43 278 C 437.2 278 438.56 279.91 439.44 282.25 C 440.32 284.59 441.14 288.28 441.27 290.46 C 441.45 293.51 441.11 294.5 439.8 294.78 z M 499.41 294 C 498.61 294 494.38 290.66 490.01 286.57 C 485.64 282.49 480.03 277.74 477.53 276.02 C 475.03 274.3 469.54 271.26 465.32 269.25 C 459.39 266.44 456.39 265.61 452.08 265.59 C 449.01 265.58 445.1 265.93 443.39 266.38 C 440.67 267.09 440.21 266.91 439.69 264.94 C 439.37 263.7 439.72 261.21 440.48 259.4 C 441.23 257.59 444.74 253.22 448.28 249.68 C 452.62 245.35 457.15 242.05 462.18 239.56 C 466.73 237.31 472.37 235.45 476.58 234.8 C 481.74 234.01 484.98 234.05 489.34 234.96 C 493.83 235.9 496.03 237.03 498.87 239.87 C 500.9 241.9 503.37 245.25 504.34 247.31 C 505.32 249.37 506.56 253.8 507.1 257.15 C 507.64 260.51 507.81 265.33 507.48 267.88 C 507.14 270.42 506.39 274.98 505.82 278 C 505.24 281.02 503.89 285.86 502.81 288.75 C 501.69 291.77 500.24 294 499.41 294 z M 221.95 283.35 C 222.36 282.88 226.17 278.55 230.42 273.72 C 238.14 264.95 238.14 264.95 232.58 262.49 C 229.52 261.14 224.97 259.52 222.47 258.89 C 219.97 258.26 217.65 258.01 217.32 258.35 C 216.99 258.68 217.27 262.45 217.95 266.72 C 218.62 271 219.63 276.68 220.19 279.35 C 220.75 282.01 221.54 283.81 221.95 283.35 z M 483.66 271.15 C 483.76 270.79 485.51 264.53 487.56 257.22 C 489.61 249.92 491.02 243.69 490.71 243.37 C 490.39 243.06 487.94 243.52 485.27 244.41 C 482.6 245.3 477.56 247.7 474.08 249.76 C 470.59 251.82 465.74 255.25 463.31 257.39 C 460.87 259.53 459.24 261.62 459.69 262.03 C 460.13 262.44 463.18 263.54 466.45 264.48 C 469.73 265.41 474.9 267.44 477.95 268.99 C 481 270.54 483.57 271.51 483.66 271.15 z" stroke-linecap="round" />
</g>
</svg>