<?xml version="1.0" encoding="UTF-8" standalone="no"?>
<svg 
  version="1.1" 
  xmlns="http://www.w3.org/2000/svg" 
  xmlns:xlink="http://www.w3.org/1999/xlink" 
  xmlns:svg="http://www.w3.org/2000/svg"
  xmlns:rdf="http://www.w3.org/1999/02/22-rdf-syntax-ns#"
  xmlns:cc="http://creativecommons.org/ns#"
  xmlns:dc="http://purl.org/dc/elements/1.1/"
  viewBox="0 0 768 768"
  width="768"
  height="768"
>
<style>svg {background-color: white; }</style>"
<metadata id="metadata1">
Created by https://svgstud.io and licensed under CC-BY-SA 4.0 license. Please attribute https://svgstud.io
</metadata>
<metadata id="prompt">
vector piggybank
</metadata>
<metadata id="version">
7
</metadata>
<metadata id="metadata2">
<rdf:RDF>
<cc:Work
    rdf:about="">
    <cc:license
    rdf:resource="http://creativecommons.org/licenses/by-sa/4.0/" />
    <dc:creator>
        <cc:Agent>
            <dc:title>https://svgstud.io</dc:title>
        </cc:Agent>
    </dc:creator>
</cc:Work>
<cc:License
    rdf:about="http://creativecommons.org/licenses/by-sa/4.0/">
    <cc:permits
    rdf:resource="http://creativecommons.org/ns#Reproduction" />
    <cc:permits
    rdf:resource="http://creativecommons.org/ns#Distribution" />
    <cc:requires
    rdf:resource="http://creativecommons.org/ns#Notice" />
    <cc:requires
    rdf:resource="http://creativecommons.org/ns#Attribution" />
    <cc:permits
    rdf:resource="http://creativecommons.org/ns#DerivativeWorks" />
    <cc:requires
    rdf:resource="http://creativecommons.org/ns#ShareAlike" />
</cc:License>
</rdf:RDF>
</metadata>
<metadata id="uid">
68def6a69e3a2425175a76c04b9e3e4c311140d541e560a348a43611f025f30f
</metadata>
<path stroke="none" fill="black" fill-rule="evenodd" d="M493.00,547.29C487.23,547.57 478.82,547.45 474.33,547.04C468.32,546.48 465.00,545.60 461.76,543.71C459.34,542.29 456.18,539.41 454.74,537.31C453.30,535.22 451.83,532.15 451.47,530.50C451.11,528.85 450.60,526.71 450.34,525.75C450.08,524.79 449.11,524.01 448.18,524.02C447.26,524.03 442.33,525.35 437.22,526.96C432.12,528.57 423.57,530.80 418.22,531.90C412.88,533.01 401.88,534.61 393.78,535.46C385.68,536.31 374.43,536.99 368.78,536.98C363.13,536.97 354.23,536.52 349.00,535.98C343.77,535.44 334.94,534.10 329.38,533.00C323.81,531.91 315.26,529.82 310.38,528.38C305.49,526.93 300.59,525.54 299.48,525.30C297.84,524.94 297.05,525.81 295.34,529.88C293.93,533.20 292.09,535.58 289.90,536.92C288.07,538.03 283.53,539.63 279.80,540.48C276.07,541.33 268.57,542.48 263.13,543.03C256.58,543.71 250.34,543.72 244.62,543.07C239.87,542.53 233.89,541.16 231.32,540.03C228.76,538.89 224.65,536.32 222.20,534.30C219.72,532.28 216.79,528.61 215.62,526.07C213.62,521.77 213.52,520.16 213.80,498.78C214.02,482.46 213.77,475.42 212.90,473.78C212.24,472.53 208.19,466.19 203.90,459.69C198.79,451.95 194.67,444.21 191.92,437.19C189.62,431.31 186.45,421.40 184.88,415.17C183.30,408.94 181.52,398.59 180.91,392.17C180.31,385.75 180.11,376.45 180.47,371.50C180.83,366.55 181.59,359.35 182.15,355.50C182.71,351.65 184.25,344.61 185.57,339.85C186.89,335.10 189.98,326.78 192.44,321.36C196.90,311.52 196.90,311.52 194.60,307.51C193.33,305.30 190.68,300.87 188.71,297.66C186.74,294.45 184.15,289.05 182.97,285.66C181.62,281.81 180.61,275.93 180.28,270.00C179.97,264.37 180.24,258.16 180.94,254.78C181.60,251.63 183.50,246.32 185.17,242.97C186.85,239.62 190.72,234.17 193.79,230.86C196.85,227.55 202.18,222.83 205.63,220.37C209.08,217.91 215.63,214.51 220.20,212.81C226.98,210.29 230.48,209.64 239.37,209.23C246.26,208.91 252.29,209.19 255.87,209.99C258.96,210.68 263.83,212.28 266.67,213.54C269.52,214.79 274.63,217.71 278.03,220.02C283.68,223.86 284.45,224.11 286.86,222.99C288.31,222.31 292.65,220.66 296.50,219.32C300.35,217.97 308.63,215.55 314.90,213.94C321.17,212.32 327.47,210.99 328.90,210.98C330.33,210.97 333.98,209.55 337.00,207.82C340.02,206.10 344.41,203.67 346.74,202.43C349.07,201.20 354.18,199.64 358.10,198.98C362.02,198.32 368.17,197.97 371.77,198.20C378.09,198.60 378.45,198.77 382.41,203.23C386.43,207.76 386.63,207.85 394.00,208.47C398.12,208.82 406.45,209.76 412.50,210.57C418.55,211.37 427.48,213.13 432.34,214.47C441.19,216.92 441.19,216.92 451.34,212.04C457.01,209.31 465.00,206.40 469.41,205.44C475.21,204.18 479.88,203.87 486.91,204.27C493.50,204.65 498.61,205.59 503.24,207.28C506.95,208.64 512.51,211.27 515.59,213.12C518.67,214.98 523.96,219.44 527.35,223.03C530.73,226.62 534.76,231.90 536.30,234.75C537.84,237.61 539.78,243.22 540.62,247.22C541.65,252.14 541.93,256.77 541.50,261.50C541.14,265.35 539.97,272.30 538.90,276.94C536.95,285.37 536.95,285.37 543.82,295.44C547.60,300.97 552.03,307.98 553.67,311.00C555.31,314.02 558.53,321.30 560.82,327.16C563.11,333.02 566.08,342.32 567.41,347.83C568.74,353.34 570.38,362.20 571.05,367.52C571.80,373.43 572.05,382.52 571.71,390.85C571.40,398.36 570.41,408.55 569.51,413.50C568.61,418.45 566.32,427.18 564.42,432.89C562.52,438.61 558.69,447.83 555.91,453.39C553.13,458.95 547.90,467.92 544.28,473.31C537.70,483.12 537.70,483.12 538.75,502.05C539.32,512.46 539.44,522.57 539.00,524.51C538.56,526.46 537.02,529.60 535.57,531.50C534.12,533.39 530.92,536.33 528.46,538.03C525.99,539.72 522.41,541.77 520.49,542.57C518.57,543.37 513.96,544.65 510.25,545.41C506.54,546.17 498.77,547.02 493.00,547.29zM485.00,530.36C489.68,530.14 496.80,529.70 500.84,529.38C506.19,528.97 508.71,528.29 510.09,526.91C511.88,525.12 512.00,523.24 511.97,497.75C511.94,470.50 511.94,470.50 509.72,473.11C508.50,474.55 505.42,478.24 502.87,481.33C500.32,484.41 495.31,489.43 491.74,492.48C488.16,495.54 481.47,500.21 476.87,502.87C468.50,507.70 468.50,507.70 468.83,516.50C469.01,521.34 469.55,526.32 470.03,527.58C470.57,528.99 471.96,530.03 473.70,530.31C475.24,530.56 480.32,530.59 485.00,530.36zM247.55,524.93C252.56,524.97 256.05,524.55 256.80,523.80C257.61,522.99 258.00,518.43 258.00,509.82C258.00,497.04 258.00,497.04 250.53,489.90C246.42,485.96 242.78,481.87 242.44,480.80C242.10,479.73 242.06,478.60 242.36,478.30C242.66,478.00 247.99,481.12 254.20,485.23C260.42,489.35 268.43,494.31 272.00,496.28C275.57,498.24 282.44,501.46 287.25,503.44C292.06,505.42 301.28,508.56 307.75,510.42C314.21,512.27 323.78,514.51 329.01,515.40C334.24,516.29 344.59,517.48 352.01,518.06C359.43,518.63 368.09,518.81 371.25,518.45C374.41,518.10 376.80,517.49 376.57,517.11C376.34,516.73 370.04,513.32 362.57,509.52C355.11,505.72 349.00,502.32 349.00,501.96C349.00,501.59 354.96,501.03 362.25,500.71C369.54,500.38 379.55,499.39 384.50,498.51C389.45,497.63 398.17,495.35 403.87,493.44C409.58,491.53 417.68,488.18 421.87,485.99C426.07,483.79 432.48,479.76 436.12,477.02C439.75,474.28 445.43,469.16 448.73,465.63C452.03,462.10 457.32,455.33 460.48,450.57C463.65,445.81 467.92,438.45 469.98,434.21C472.04,429.97 475.21,422.45 477.03,417.50C478.84,412.55 480.65,408.12 481.05,407.66C481.46,407.19 482.38,408.54 483.10,410.66C483.88,412.91 484.40,418.65 484.36,424.50C484.31,431.42 483.61,437.12 482.08,442.99C480.86,447.66 478.54,454.48 476.93,458.16C475.32,461.83 474.00,465.18 474.00,465.59C474.00,466.01 475.16,465.26 476.59,463.92C478.01,462.59 481.38,458.53 484.07,454.90C486.76,451.27 490.75,444.73 492.94,440.36C495.13,435.99 498.48,427.71 500.40,421.96C502.31,416.21 504.60,407.45 505.48,402.50C506.36,397.55 507.51,385.00 508.02,374.60C508.54,364.21 509.19,355.48 509.46,355.21C509.73,354.94 510.89,356.92 512.05,359.61C513.21,362.30 515.58,369.45 517.33,375.50C520.42,386.21 520.50,387.02 520.48,406.18C520.47,417.01 520.80,425.33 521.22,424.68C521.63,424.03 523.09,420.12 524.46,416.00C525.83,411.88 527.70,404.23 528.62,399.00C529.53,393.77 530.29,384.77 530.30,379.00C530.31,373.23 529.76,365.12 529.08,361.00C528.40,356.88 526.95,350.21 525.86,346.20C524.76,342.18 522.49,335.66 520.81,331.70C519.13,327.74 515.73,320.99 513.26,316.70C509.58,310.30 508.88,308.33 509.40,305.70C509.75,303.94 512.27,296.34 515.01,288.81C517.74,281.28 520.71,270.93 521.60,265.81C522.56,260.23 522.98,254.24 522.63,250.86C522.31,247.76 521.15,242.81 520.05,239.86C518.94,236.91 515.98,232.15 513.47,229.28C510.24,225.59 506.67,222.96 501.31,220.31C494.42,216.90 492.82,216.52 483.92,216.17C477.16,215.89 471.81,216.29 466.66,217.43C462.56,218.34 455.67,220.82 451.35,222.93C447.03,225.04 441.61,228.15 439.30,229.85C436.99,231.55 431.97,235.89 428.14,239.51C423.80,243.60 420.91,245.66 420.48,244.97C420.10,244.36 420.96,241.60 422.40,238.83C423.83,236.07 425.00,233.48 425.00,233.07C425.00,232.65 420.61,231.34 415.25,230.15C409.89,228.96 402.35,227.54 398.50,227.01C394.65,226.48 386.89,226.03 381.25,226.02C371.06,226.00 370.99,226.02 367.25,229.32C365.19,231.14 359.97,235.31 355.66,238.57C351.35,241.83 346.10,245.79 344.00,247.36C341.90,248.94 339.64,250.05 338.98,249.83C338.25,249.58 339.95,246.33 343.37,241.46C346.43,237.08 350.36,231.40 352.08,228.84C354.56,225.16 355.99,224.04 358.86,223.51C360.86,223.13 363.22,222.19 364.10,221.40C364.98,220.61 366.76,216.84 368.06,213.03C369.36,209.21 370.14,205.81 369.80,205.46C369.45,205.12 366.44,205.54 363.10,206.40C359.76,207.25 354.89,209.04 352.27,210.38C349.64,211.71 346.57,213.86 345.43,215.15C344.29,216.44 341.93,219.78 340.19,222.56C337.03,227.63 337.03,227.63 327.77,229.38C322.67,230.35 312.20,233.29 304.50,235.93C296.80,238.56 288.38,241.56 285.79,242.59C281.07,244.46 281.07,244.46 275.16,238.58C271.91,235.35 266.73,231.00 263.64,228.93C260.55,226.85 255.61,224.25 252.65,223.14C249.69,222.04 244.62,220.84 241.39,220.48C237.55,220.06 232.97,220.37 228.24,221.37C224.24,222.21 218.17,224.38 214.75,226.20C211.33,228.01 205.71,232.26 202.26,235.63C198.33,239.48 195.04,243.86 193.42,247.39C192.00,250.49 190.44,255.83 189.95,259.26C189.40,263.16 189.44,267.89 190.07,271.89C190.63,275.40 192.46,281.85 194.14,286.21C195.82,290.57 199.22,297.15 201.69,300.82C204.16,304.49 206.63,308.33 207.17,309.34C207.94,310.76 207.03,313.70 203.14,322.34C200.38,328.48 197.17,337.10 196.01,341.50C194.85,345.90 193.26,354.23 192.47,360.00C191.68,365.77 191.03,374.04 191.02,378.37C191.01,382.70 191.71,390.99 192.57,396.80C193.43,402.60 195.85,412.57 197.95,418.96C200.04,425.35 203.45,433.93 205.51,438.04C207.57,442.14 211.92,449.32 215.17,454.00C218.42,458.68 222.07,463.77 223.29,465.32C225.42,468.04 225.51,469.10 225.82,493.48C226.13,516.99 226.29,518.95 228.07,520.57C229.13,521.53 232.14,522.88 234.75,523.59C237.36,524.29 243.12,524.90 247.55,524.93zM338.00,472.87C335.52,472.80 330.35,472.35 326.50,471.86C322.65,471.37 316.22,470.07 312.20,468.97C308.19,467.88 302.11,465.58 298.70,463.87C295.29,462.16 289.51,458.79 285.86,456.38C282.21,453.97 276.51,449.09 273.19,445.54C269.65,441.76 265.67,436.08 263.56,431.80C260.61,425.80 259.81,422.80 259.08,414.95C258.59,409.69 258.54,402.18 258.97,398.24C259.50,393.42 260.61,389.64 262.37,386.63C263.81,384.18 267.57,379.86 270.74,377.02C273.91,374.19 279.70,369.86 283.62,367.41C287.54,364.96 294.41,361.62 298.90,359.98C303.39,358.34 310.93,356.33 315.66,355.50C320.39,354.68 329.04,354.00 334.88,354.00C340.72,354.01 349.59,354.67 354.59,355.48C359.59,356.29 366.93,358.06 370.90,359.40C374.87,360.74 381.55,363.79 385.75,366.17C390.10,368.64 396.42,373.51 400.46,377.50C405.12,382.10 408.83,386.97 411.30,391.71C413.99,396.87 415.39,401.19 416.23,406.95C417.12,413.04 417.13,416.62 416.26,421.69C415.63,425.37 413.44,431.79 411.40,435.94C408.69,441.45 405.62,445.57 400.09,451.09C394.24,456.94 390.55,459.65 384.00,462.85C379.32,465.14 372.12,467.86 368.00,468.90C363.88,469.94 356.45,471.28 351.50,471.89C346.55,472.50 340.48,472.94 338.00,472.87zM333.50,458.58C343.54,458.33 349.67,457.64 355.20,456.17C359.43,455.04 365.45,452.90 368.57,451.42C371.80,449.90 376.94,446.09 380.47,442.62C385.01,438.15 387.33,434.88 389.05,430.50C391.07,425.38 391.42,422.74 391.43,412.50C391.43,401.51 391.19,399.92 388.53,393.56C386.35,388.33 384.01,384.98 379.07,380.01C374.89,375.81 369.88,372.05 365.30,369.68C361.34,367.62 354.63,365.06 350.39,363.97C344.84,362.55 339.35,362.00 330.80,362.00C323.87,362.00 315.73,362.66 311.27,363.58C307.07,364.45 300.78,366.23 297.30,367.54C293.82,368.85 287.83,371.95 283.99,374.44C280.14,376.93 274.98,380.82 272.51,383.10C270.03,385.38 267.00,388.88 265.76,390.87C263.82,393.99 263.53,395.72 263.68,403.21C263.78,407.99 264.56,414.63 265.41,417.95C266.26,421.28 267.93,425.90 269.12,428.23C270.30,430.56 273.98,435.28 277.29,438.72C280.60,442.17 285.39,446.32 287.93,447.95C290.47,449.59 295.69,452.11 299.53,453.56C303.36,455.01 309.43,456.81 313.00,457.56C317.32,458.47 324.19,458.81 333.50,458.58zM301.00,424.00C297.88,424.00 296.70,423.47 295.40,421.49C294.19,419.64 293.76,416.65 293.76,410.00C293.76,403.29 294.18,400.37 295.43,398.46C296.35,397.06 298.32,395.44 299.80,394.86C301.82,394.08 303.12,394.16 304.96,395.18C306.50,396.02 307.71,397.85 308.18,400.02C308.59,401.93 308.67,407.10 308.35,411.50C308.03,415.90 307.13,420.51 306.36,421.75C305.29,423.47 304.02,424.00 301.00,424.00zM335.05,424.00C333.04,424.00 330.86,423.46 330.20,422.80C329.41,422.01 329.00,417.85 329.00,410.73C329.00,404.48 329.49,398.94 330.15,397.68C330.78,396.48 331.79,395.17 332.40,394.77C333.00,394.36 334.67,394.02 336.10,394.02C337.52,394.01 339.55,394.95 340.60,396.10C342.22,397.90 342.50,399.79 342.50,409.00C342.50,418.21 342.22,420.10 340.60,421.90C339.32,423.30 337.48,424.00 335.05,424.00zM365.41,424.00C363.13,424.00 361.74,423.39 361.04,422.07C360.47,421.00 360.00,415.24 360.00,409.26C360.00,401.59 360.41,397.83 361.38,396.50C362.69,394.70 362.88,394.69 365.36,396.32C366.80,397.26 368.77,399.24 369.73,400.72C371.07,402.76 371.50,405.48 371.50,412.05C371.50,417.90 371.06,421.22 370.13,422.34C369.35,423.28 367.30,424.00 365.41,424.00zM263.93,357.98C262.05,357.96 259.11,357.27 257.41,356.43C255.72,355.59 253.58,353.34 252.66,351.42C251.75,349.50 251.00,345.77 251.00,343.12C251.00,340.04 251.82,336.76 253.29,333.99C254.55,331.61 257.23,328.32 259.24,326.69C261.91,324.54 263.97,323.73 266.82,323.73C268.97,323.73 272.10,324.54 273.77,325.52C275.44,326.51 277.75,329.00 278.91,331.05C280.30,333.52 281.00,336.55 281.00,340.05C281.00,343.86 280.31,346.50 278.51,349.57C276.86,352.39 274.59,354.51 271.70,355.90C269.32,357.06 265.82,357.99 263.93,357.98zM407.02,357.00C404.45,357.00 400.68,356.10 398.27,354.91C395.95,353.76 393.13,351.33 392.00,349.50C390.57,347.19 389.90,344.24 389.76,339.72C389.60,334.20 389.96,332.65 392.22,329.24C393.80,326.85 396.63,324.39 399.25,323.12C401.66,321.95 404.55,321.00 405.67,321.00C406.79,321.00 409.23,321.51 411.10,322.14C412.97,322.76 415.78,324.45 417.34,325.89C418.90,327.32 420.86,329.81 421.70,331.41C422.72,333.37 423.08,336.16 422.81,339.96C422.58,343.07 421.50,347.34 420.40,349.46C419.29,351.61 416.88,354.13 414.97,355.16C413.08,356.17 409.50,357.00 407.02,357.00zM261.62,346.00C262.45,346.00 264.00,345.53 265.06,344.97C266.12,344.40 267.94,342.08 269.09,339.82C270.77,336.54 270.97,335.24 270.12,333.35C269.30,331.56 268.24,331.00 265.66,331.00C263.74,331.00 261.12,331.90 259.63,333.07C257.77,334.54 257.00,336.08 257.00,338.35C257.00,340.11 257.70,342.56 258.56,343.78C259.41,345.00 260.79,346.00 261.62,346.00zM398.77,345.00C399.58,345.00 401.98,343.25 404.12,341.12C406.53,338.71 408.00,336.30 408.00,334.77C408.00,333.42 407.11,331.51 406.03,330.52C404.31,328.97 403.65,328.90 400.99,330.00C399.31,330.70 397.05,332.40 395.97,333.77C394.88,335.14 394.00,337.41 394.00,338.81C394.00,340.20 394.74,342.17 395.65,343.17C396.57,344.18 397.97,345.00 398.77,345.00zM212.34,303.73C211.68,303.94 209.83,300.60 207.99,295.83C206.24,291.27 204.18,284.61 203.42,281.02C202.66,277.44 202.02,272.48 202.01,270.00C202.00,267.52 202.78,263.25 203.75,260.50C204.79,257.52 207.24,253.75 209.79,251.19C212.14,248.81 216.39,245.80 219.23,244.48C222.07,243.17 226.71,241.81 229.54,241.45C232.98,241.02 236.83,241.35 241.10,242.44C244.62,243.34 249.90,245.52 252.84,247.29C255.77,249.05 260.19,252.65 262.65,255.28C265.12,257.91 266.99,260.75 266.82,261.58C266.58,262.72 264.80,263.21 259.94,263.49C256.34,263.69 251.39,264.63 248.94,265.58C246.50,266.53 242.08,269.13 239.12,271.37C236.17,273.61 231.52,277.93 228.81,280.97C226.09,284.01 221.53,290.29 218.68,294.92C215.83,299.56 212.98,303.52 212.34,303.73zM439.80,294.78C438.86,294.97 437.28,294.14 436.30,292.93C435.31,291.73 432.81,288.74 430.75,286.31C428.69,283.87 427.00,281.44 427.00,280.90C427.00,280.29 427.73,280.32 428.95,280.97C430.02,281.55 431.54,282.93 432.32,284.04C433.66,285.96 433.77,285.85 434.38,282.03C434.78,279.54 435.56,278.00 436.43,278.00C437.20,278.00 438.56,279.91 439.44,282.25C440.32,284.59 441.14,288.28 441.27,290.46C441.45,293.51 441.11,294.50 439.80,294.78zM499.41,294.00C498.61,294.00 494.38,290.66 490.01,286.57C485.64,282.49 480.03,277.74 477.53,276.02C475.03,274.30 469.54,271.26 465.32,269.25C459.39,266.44 456.39,265.61 452.08,265.59C449.01,265.58 445.10,265.93 443.39,266.38C440.67,267.09 440.21,266.91 439.69,264.94C439.37,263.70 439.72,261.21 440.48,259.40C441.23,257.59 444.74,253.22 448.28,249.68C452.62,245.35 457.15,242.05 462.18,239.56C466.73,237.31 472.37,235.45 476.58,234.80C481.74,234.01 484.98,234.05 489.34,234.96C493.83,235.90 496.03,237.03 498.87,239.87C500.90,241.90 503.37,245.25 504.34,247.31C505.32,249.37 506.56,253.80 507.10,257.15C507.64,260.51 507.81,265.33 507.48,267.88C507.14,270.42 506.39,274.98 505.82,278.00C505.24,281.02 503.89,285.86 502.81,288.75C501.69,291.77 500.24,294.00 499.41,294.00zM221.95,283.35C222.36,282.88 226.17,278.55 230.42,273.72C238.14,264.95 238.14,264.95 232.58,262.49C229.52,261.14 224.97,259.52 222.47,258.89C219.97,258.26 217.65,258.01 217.32,258.35C216.99,258.68 217.27,262.45 217.95,266.72C218.62,271.00 219.63,276.68 220.19,279.35C220.75,282.01 221.54,283.81 221.95,283.35zM483.66,271.15C483.76,270.79 485.51,264.53 487.56,257.22C489.61,249.92 491.02,243.69 490.71,243.37C490.39,243.06 487.94,243.52 485.27,244.41C482.60,245.30 477.56,247.70 474.08,249.76C470.59,251.82 465.74,255.25 463.31,257.39C460.87,259.53 459.24,261.62 459.69,262.03C460.13,262.44 463.18,263.54 466.45,264.48C469.73,265.41 474.90,267.44 477.95,268.99C481.00,270.54 483.57,271.51 483.66,271.15z" />

</svg>